<svg width="65" height="65" viewBox="0 0 65 65" fill="none" xmlns="http://www.w3.org/2000/svg">
<g clip-path="url(#clip0_62_102)">
<path d="M9.15527e-05 48.75V45.1615C9.15527e-05 43.401 0.948008 41.9792 2.84384 40.8958C4.73967 39.8125 7.17717 39.2708 10.1563 39.2708C10.7431 39.2708 11.2848 39.2821 11.7813 39.3047C12.2779 39.3273 12.7744 39.3837 13.2709 39.474C12.9098 40.2413 12.639 41.02 12.4584 41.8099C12.2779 42.5998 12.1876 43.4462 12.1876 44.349V48.75H9.15527e-05ZM16.2501 48.75V44.349C16.2501 41.4149 17.751 39.0451 20.7527 37.2396C23.7544 35.434 27.6702 34.5312 32.5001 34.5312C37.3751 34.5312 41.3022 35.434 44.2813 37.2396C47.2605 39.0451 48.7501 41.4149 48.7501 44.349V48.75H16.2501ZM52.8126 48.75V44.349C52.8126 43.4462 52.7336 42.5998 52.5756 41.8099C52.4176 41.02 52.1581 40.2413 51.797 39.474C52.2935 39.3837 52.79 39.3273 53.2865 39.3047C53.7831 39.2821 54.3022 39.2708 54.8438 39.2708C57.9133 39.2708 60.3734 39.8125 62.224 40.8958C64.0747 41.9792 65.0001 43.401 65.0001 45.1615V48.75H52.8126ZM32.5001 38.5937C28.889 38.5937 25.955 39.1354 23.698 40.2188C21.4411 41.3021 20.3126 42.6788 20.3126 44.349V44.6875H44.6876V44.2813C44.6876 42.6563 43.5704 41.3021 41.336 40.2188C39.1017 39.1354 36.1563 38.5937 32.5001 38.5937ZM10.1563 37.2396C8.84731 37.2396 7.73013 36.7769 6.80478 35.8516C5.87943 34.9262 5.41676 33.809 5.41676 32.5C5.41676 31.191 5.87943 30.0738 6.80478 29.1484C7.73013 28.2231 8.84731 27.7604 10.1563 27.7604C11.4654 27.7604 12.5826 28.2231 13.5079 29.1484C14.4333 30.0738 14.8959 31.191 14.8959 32.5C14.8959 33.809 14.4333 34.9262 13.5079 35.8516C12.5826 36.7769 11.4654 37.2396 10.1563 37.2396ZM54.8438 37.2396C53.5348 37.2396 52.4176 36.7769 51.4923 35.8516C50.5669 34.9262 50.1043 33.809 50.1043 32.5C50.1043 31.191 50.5669 30.0738 51.4923 29.1484C52.4176 28.2231 53.5348 27.7604 54.8438 27.7604C56.1529 27.7604 57.2701 28.2231 58.1954 29.1484C59.1207 30.0738 59.5834 31.191 59.5834 32.5C59.5834 33.809 59.1207 34.9262 58.1954 35.8516C57.2701 36.7769 56.1529 37.2396 54.8438 37.2396ZM32.5001 32.5C30.2431 32.5 28.3247 31.7101 26.7449 30.1302C25.165 28.5503 24.3751 26.6319 24.3751 24.375C24.3751 22.0729 25.165 20.1432 26.7449 18.5859C28.3247 17.0286 30.2431 16.25 32.5001 16.25C34.8022 16.25 36.7319 17.0286 38.2892 18.5859C39.8464 20.1432 40.6251 22.0729 40.6251 24.375C40.6251 26.6319 39.8464 28.5503 38.2892 30.1302C36.7319 31.7101 34.8022 32.5 32.5001 32.5ZM32.5001 20.3125C31.3716 20.3125 30.4124 20.6962 29.6225 21.4635C28.8326 22.2309 28.4376 23.2014 28.4376 24.375C28.4376 25.5035 28.8326 26.4627 29.6225 27.2526C30.4124 28.0425 31.3716 28.4375 32.5001 28.4375C33.6737 28.4375 34.6442 28.0425 35.4115 27.2526C36.1789 26.4627 36.5626 25.5035 36.5626 24.375C36.5626 23.2014 36.1789 22.2309 35.4115 21.4635C34.6442 20.6962 33.6737 20.3125 32.5001 20.3125Z" fill="#BFBC37"/>
</g>
<defs>
<clipPath id="clip0_62_102">
<rect width="65" height="65" fill="white"/>
</clipPath>
</defs>
</svg>
