<svg width="66" height="66" viewBox="0 0 66 66" fill="none" xmlns="http://www.w3.org/2000/svg">
<path d="M32.6785 55.7403C32.9042 55.7403 33.1637 55.6839 33.4571 55.571C33.7506 55.4582 33.9875 55.3115 34.1681 55.1309L56.9858 32.2455C57.5726 31.6587 58.0127 30.9929 58.3061 30.2481C58.5995 29.5033 58.7462 28.7473 58.7462 27.9799C58.7462 27.2125 58.5995 26.4452 58.3061 25.6778C58.0127 24.9105 57.5726 24.2334 56.9858 23.6466L44.7983 11.4591C44.2115 10.8723 43.5344 10.4322 42.767 10.1388C41.9997 9.84535 41.2323 9.69865 40.465 9.69865C39.6976 9.69865 38.9415 9.84535 38.1967 10.1388C37.4519 10.4322 36.7861 10.8723 36.1993 11.4591L34.9806 12.6778L40.465 18.2299C41.0518 18.8618 41.5709 19.5954 42.0223 20.4304C42.4736 21.2655 42.6993 22.1796 42.6993 23.1726C42.6993 24.8879 42.0335 26.4 40.7019 27.7091C39.3703 29.0181 37.8469 29.6726 36.1316 29.6726C35.0032 29.6726 34.0665 29.5033 33.3217 29.1648C32.5769 28.8263 31.8886 28.341 31.2566 27.7091L26.3139 22.7664L14.0587 35.0216C13.833 35.2473 13.675 35.4842 13.5848 35.7325C13.4945 35.9808 13.4493 36.2403 13.4493 36.5112C13.4493 37.098 13.6412 37.5832 14.0249 37.9669C14.4085 38.3506 14.8938 38.5424 15.4806 38.5424C15.7514 38.5424 16.011 38.4747 16.2592 38.3393C16.5075 38.2039 16.7219 38.0459 16.9025 37.8653L26.2462 28.5216L29.09 31.3653L19.8139 40.6414C19.5882 40.8671 19.4302 41.1153 19.34 41.3861C19.2497 41.657 19.2045 41.9278 19.2045 42.1987C19.2045 42.7403 19.4077 43.2143 19.8139 43.6205C20.2202 44.0268 20.6941 44.2299 21.2358 44.2299C21.5066 44.2299 21.7662 44.1735 22.0144 44.0606C22.2627 43.9478 22.4771 43.8011 22.6577 43.6205L32.0014 34.2768L34.8452 37.1205L25.5691 46.3966C25.3886 46.5771 25.2419 46.8141 25.129 47.1075C25.0162 47.4009 24.9598 47.683 24.9598 47.9539C24.9598 48.4955 25.1629 48.9695 25.5691 49.3757C25.9754 49.782 26.4493 49.9851 26.991 49.9851C27.2618 49.9851 27.5101 49.94 27.7358 49.8497C27.9615 49.7594 28.1872 49.6014 28.4129 49.3757L37.7566 40.032L40.6004 42.8757L31.2566 52.2195C31.0309 52.4452 30.8729 52.6934 30.7827 52.9643C30.6924 53.2351 30.6473 53.4834 30.6473 53.7091C30.6473 54.341 30.8278 54.8375 31.1889 55.1987C31.55 55.5598 32.0466 55.7403 32.6785 55.7403ZM32.6785 59.8028C31.1889 59.8028 29.8573 59.2499 28.6837 58.144C27.5101 57.0381 26.8104 55.6726 26.5848 54.0476C25.05 53.8219 23.7636 53.19 22.7254 52.1518C21.6872 51.1136 21.0552 49.8271 20.8295 48.2924C19.2948 48.0667 18.0196 47.4235 17.004 46.3627C15.9884 45.302 15.3677 44.0268 15.142 42.5372C13.4719 42.3115 12.0952 41.6344 11.0118 40.5059C9.9285 39.3775 9.38684 38.0233 9.38684 36.4434C9.38684 35.6761 9.53354 34.9087 9.82694 34.1414C10.1203 33.374 10.5604 32.6969 11.1473 32.1101L26.3139 16.9434L33.7618 24.3914C34.1229 24.7525 34.5179 25.0346 34.9467 25.2377C35.3756 25.4408 35.7931 25.5424 36.1993 25.5424C36.7861 25.5424 37.3391 25.2829 37.8582 24.7638C38.3773 24.2447 38.6368 23.6917 38.6368 23.1049C38.6368 22.8341 38.5578 22.5294 38.3999 22.1908C38.2419 21.8523 37.9823 21.5025 37.6212 21.1414L27.9389 11.4591C27.3521 10.8723 26.675 10.4322 25.9077 10.1388C25.1403 9.84535 24.3729 9.69865 23.6056 9.69865C22.8382 9.69865 22.0821 9.84535 21.3374 10.1388C20.5926 10.4322 19.9268 10.8723 19.34 11.4591L9.04829 21.7507C8.41635 22.3827 7.97624 23.0485 7.72798 23.7481C7.47972 24.4478 7.33302 25.2264 7.28788 26.0841C7.24274 26.9868 7.41201 27.8558 7.79569 28.6908C8.17937 29.5259 8.64204 30.282 9.18371 30.9591L6.27225 33.8705C5.36947 32.8775 4.63597 31.6813 4.07173 30.282C3.50749 28.8827 3.22538 27.4608 3.22538 26.0164C3.22538 24.6622 3.48492 23.3644 4.00402 22.1231C4.52312 20.8818 5.25663 19.7872 6.20454 18.8393L16.4285 8.61532C17.4216 7.62226 18.55 6.88875 19.8139 6.41479C21.0778 5.94084 22.3643 5.70386 23.6733 5.70386C24.9823 5.70386 26.2575 5.94084 27.4988 6.41479C28.7401 6.88875 29.8573 7.62226 30.8504 8.61532L32.0691 9.83407L33.2879 8.61532C34.2809 7.62226 35.4094 6.88875 36.6733 6.41479C37.9372 5.94084 39.2236 5.70386 40.5327 5.70386C41.8417 5.70386 43.1169 5.94084 44.3582 6.41479C45.5995 6.88875 46.7167 7.62226 47.7098 8.61532L59.8295 20.7351C60.8226 21.7282 61.5674 22.8566 62.0639 24.1205C62.5605 25.3844 62.8087 26.6709 62.8087 27.9799C62.8087 29.2889 62.5605 30.5641 62.0639 31.8054C61.5674 33.0467 60.8226 34.1639 59.8295 35.157L37.0118 57.9747C36.425 58.5615 35.7592 59.0129 35.0144 59.3289C34.2696 59.6448 33.491 59.8028 32.6785 59.8028V59.8028Z" fill="#BFBC37"/>
</svg>
