<svg width="65" height="66" viewBox="0 0 65 66" fill="none" xmlns="http://www.w3.org/2000/svg">
<path d="M32.7708 48.9692C33.493 48.9692 34.1024 48.721 34.5989 48.2244C35.0955 47.7279 35.3437 47.1185 35.3437 46.3963C35.3437 45.6741 35.0955 45.0647 34.5989 44.5682C34.1024 44.0717 33.493 43.8234 32.7708 43.8234C32.0486 43.8234 31.4392 44.0717 30.9427 44.5682C30.4462 45.0647 30.1979 45.6741 30.1979 46.3963C30.1979 47.1185 30.4462 47.7279 30.9427 48.2244C31.4392 48.721 32.0486 48.9692 32.7708 48.9692ZM30.401 39.0838H34.3958C34.3958 37.9102 34.5425 36.8382 34.8359 35.8677C35.1293 34.8972 36.0434 33.78 37.5781 32.5161C38.9774 31.3425 39.9705 30.1915 40.5573 29.063C41.1441 27.9345 41.4375 26.6932 41.4375 25.339C41.4375 22.9467 40.6588 21.0283 39.1016 19.5838C37.5443 18.1394 35.4792 17.4172 32.9062 17.4172C30.6944 17.4172 28.7422 17.9701 27.0495 19.076C25.3568 20.1819 24.1267 21.7054 23.3594 23.6463L26.9479 25.0005C27.4444 23.7366 28.1892 22.7548 29.1823 22.0552C30.1753 21.3555 31.3489 21.0057 32.7031 21.0057C34.2378 21.0057 35.4792 21.4232 36.4271 22.2583C37.375 23.0934 37.8489 24.1654 37.8489 25.4744C37.8489 26.4675 37.5555 27.4041 36.9687 28.2843C36.3819 29.1646 35.5243 30.0786 34.3958 31.0265C33.0417 32.2001 32.0373 33.3625 31.3828 34.5135C30.7283 35.6646 30.401 37.188 30.401 39.0838V39.0838ZM32.5 60.2765C28.7986 60.2765 25.3003 59.5656 22.0052 58.1437C18.7101 56.7218 15.8325 54.7809 13.3724 52.3208C10.9123 49.8607 8.97135 46.9831 7.54947 43.688C6.1276 40.3928 5.41666 36.8946 5.41666 33.1932C5.41666 29.4467 6.1276 25.9258 7.54947 22.6307C8.97135 19.3356 10.9123 16.4692 13.3724 14.0317C15.8325 11.5942 18.7101 9.66455 22.0052 8.24268C25.3003 6.8208 28.7986 6.10986 32.5 6.10986C36.2465 6.10986 39.7673 6.8208 43.0625 8.24268C46.3576 9.66455 49.2239 11.5942 51.6614 14.0317C54.0989 16.4692 56.0286 19.3356 57.4505 22.6307C58.8724 25.9258 59.5833 29.4467 59.5833 33.1932C59.5833 36.8946 58.8724 40.3928 57.4505 43.688C56.0286 46.9831 54.0989 49.8607 51.6614 52.3208C49.2239 54.7809 46.3576 56.7218 43.0625 58.1437C39.7673 59.5656 36.2465 60.2765 32.5 60.2765ZM32.5 56.214C38.9097 56.214 44.3489 53.9684 48.8177 49.4771C53.2864 44.9857 55.5208 39.5578 55.5208 33.1932C55.5208 26.7835 53.2864 21.3442 48.8177 16.8755C44.3489 12.4067 38.9097 10.1724 32.5 10.1724C26.1354 10.1724 20.7075 12.4067 16.2161 16.8755C11.7248 21.3442 9.47916 26.7835 9.47916 33.1932C9.47916 39.5578 11.7248 44.9857 16.2161 49.4771C20.7075 53.9684 26.1354 56.214 32.5 56.214Z" fill="#BFBC37"/>
</svg>
