<svg width="20" height="20" viewBox="0 0 20 20" fill="none" xmlns="http://www.w3.org/2000/svg">
<path d="M10.0002 9.79169C10.403 9.79169 10.7468 9.64933 11.0315 9.3646C11.3162 9.07988 11.4586 8.73613 11.4586 8.33335C11.4586 7.93058 11.3162 7.58683 11.0315 7.3021C10.7468 7.01738 10.403 6.87502 10.0002 6.87502C9.59746 6.87502 9.25371 7.01738 8.96898 7.3021C8.68426 7.58683 8.5419 7.93058 8.5419 8.33335C8.5419 8.73613 8.68426 9.07988 8.96898 9.3646C9.25371 9.64933 9.59746 9.79169 10.0002 9.79169ZM10.0002 16.6875C11.8475 15.007 13.212 13.4827 14.094 12.1146C14.9759 10.7465 15.4169 9.54169 15.4169 8.50002C15.4169 6.86113 14.8926 5.52085 13.844 4.47919C12.7954 3.43752 11.5141 2.91669 10.0002 2.91669C8.48635 2.91669 7.2051 3.43752 6.15648 4.47919C5.10787 5.52085 4.58357 6.86113 4.58357 8.50002C4.58357 9.54169 5.03496 10.7465 5.93773 12.1146C6.84051 13.4827 8.19468 15.007 10.0002 16.6875ZM10.0002 18.3334C7.76412 16.4306 6.09399 14.6632 4.98982 13.0313C3.88565 11.3993 3.33357 9.88891 3.33357 8.50002C3.33357 6.41669 4.00371 4.75696 5.34398 3.52085C6.68426 2.28474 8.23635 1.66669 10.0002 1.66669C11.7641 1.66669 13.3162 2.28474 14.6565 3.52085C15.9968 4.75696 16.6669 6.41669 16.6669 8.50002C16.6669 9.88891 16.1148 11.3993 15.0107 13.0313C13.9065 14.6632 12.2363 16.4306 10.0002 18.3334Z" fill="white"/>
</svg>
