<svg width="20" height="19" viewBox="0 0 20 19" fill="none" xmlns="http://www.w3.org/2000/svg">
<g clip-path="url(#clip0_46_274)">
<path d="M22.5333 23.98L13.7667 15.2206C13.1 15.7979 12.3222 16.2476 11.4333 16.5695C10.5444 16.8915 9.6 17.0524 8.6 17.0524C6.2 17.0524 4.16667 16.2198 2.5 14.5545C0.833333 12.8892 0 10.8798 0 8.52622C0 6.17263 0.833333 4.16319 2.5 2.49792C4.16667 0.832639 6.18889 0 8.56667 0C10.9222 0 12.9278 0.832639 14.5833 2.49792C16.2389 4.16319 17.0667 6.17263 17.0667 8.52622C17.0667 9.48098 16.9111 10.4024 16.6 11.2906C16.2889 12.1787 15.8222 13.0114 15.2 13.7885L24 22.5146L22.5333 23.98ZM8.56667 15.0541C10.3667 15.0541 11.9 14.4158 13.1667 13.139C14.4333 11.8623 15.0667 10.3247 15.0667 8.52622C15.0667 6.72772 14.4333 5.19012 13.1667 3.9134C11.9 2.63669 10.3667 1.99833 8.56667 1.99833C6.74444 1.99833 5.19444 2.63669 3.91667 3.9134C2.63889 5.19012 2 6.72772 2 8.52622C2 10.3247 2.63889 11.8623 3.91667 13.139C5.19444 14.4158 6.74444 15.0541 8.56667 15.0541V15.0541Z" fill="white"/>
</g>
<defs>
<clipPath id="clip0_46_274">
<rect width="19.0158" height="19" fill="white" transform="translate(0.0124512)"/>
</clipPath>
</defs>
</svg>
